<?xml version="1.0" standalone="no"?>
<!DOCTYPE svg PUBLIC "-//W3C//DTD SVG 20010904//EN"
 "http://www.w3.org/TR/2001/REC-SVG-20010904/DTD/svg10.dtd">
<svg version="1.0" xmlns="http://www.w3.org/2000/svg"
 width="512.000000pt" height="512.000000pt" viewBox="0 0 512.000000 512.000000"
 preserveAspectRatio="xMidYMid meet">

<g transform="translate(0.000000,512.000000) scale(0.100000,-0.100000)"
fill="#000000" stroke="none">
<path d="M1065 3596 c-44 -19 -931 -925 -950 -970 -19 -45 -19 -87 0 -132 10
-24 175 -199 466 -495 503 -511 498 -507 584 -475 76 29 112 107 82 176 -9 22
-174 197 -422 448 l-408 414 411 411 c226 227 416 425 422 440 45 122 -69 234
-185 183z"/>
<path d="M3933 3594 c-37 -18 -70 -66 -74 -104 -7 -79 -21 -62 423 -507 l422
-423 -422 -423 c-443 -444 -430 -428 -423 -507 7 -68 89 -128 159 -115 31 6
70 39 250 218 118 117 330 332 472 478 228 234 261 271 271 311 26 95 35 83
-469 596 -274 278 -470 470 -489 478 -42 18 -80 17 -120 -2z"/>
<path d="M1625 2761 c-155 -70 -169 -292 -24 -388 48 -32 136 -42 194 -23 186
61 195 339 13 414 -50 21 -134 20 -183 -3z"/>
<path d="M2481 2758 c-112 -55 -152 -201 -87 -312 40 -68 93 -100 177 -104 59
-4 74 -1 118 23 155 85 156 305 2 389 -63 34 -146 36 -210 4z"/>
<path d="M3361 2758 c-112 -55 -152 -201 -87 -312 40 -68 93 -100 177 -104 59
-4 74 -1 118 23 155 85 156 305 2 389 -63 34 -146 36 -210 4z"/>
</g>
</svg>
