<?xml version="1.0" standalone="no"?>
<!DOCTYPE svg PUBLIC "-//W3C//DTD SVG 20010904//EN"
 "http://www.w3.org/TR/2001/REC-SVG-20010904/DTD/svg10.dtd">
<svg version="1.0" xmlns="http://www.w3.org/2000/svg"
 width="512.000000pt" height="512.000000pt" viewBox="0 0 512.000000 512.000000"
 preserveAspectRatio="xMidYMid meet">

<g transform="translate(0.000000,512.000000) scale(0.100000,-0.100000)"
fill="#000000" stroke="none">
<path d="M2485 4831 c-50 -32 -1343 -1334 -1355 -1364 -15 -42 -12 -83 10
-127 35 -68 107 -100 183 -80 37 10 109 78 640 608 l597 597 598 -597 c530
-530 602 -598 640 -608 75 -20 147 12 182 80 22 44 25 85 10 127 -12 32 -1320
1346 -1362 1369 -38 20 -107 18 -143 -5z"/>
<path d="M1227 1856 c-49 -18 -64 -32 -88 -77 -21 -43 -24 -84 -9 -126 12 -32
1320 -1346 1362 -1369 15 -8 45 -14 68 -14 23 0 53 6 68 14 42 23 1350 1337
1362 1369 15 42 12 83 -10 127 -35 68 -107 100 -182 80 -38 -10 -110 -78 -640
-608 l-598 -597 -597 597 c-513 511 -604 598 -638 607 -49 13 -51 13 -98 -3z"/>
</g>
</svg>
